# xmcd
#
# Track frame offsets:
#	150
#	13611
#	29508
#	42321
#	52195
#	67311
#	79306
#	96114
#	111097
#	125310
#	140330
#	154885
#	167021
#	184756
#	193698
#
# Disc length: 2737 seconds
#
# Revision: 0
# Processed by: cddbd v1.4PL0 Copyright (c) Steve Scherf et al.
# Submitted via: dBpowerAMP V4.0
#
DISCID=d50aaf0f
DTITLE=Volebeats - "Ain't No Joke"
DYEAR=1999
DGENRE=Country
TTITLE0=And You Know It
TTITLE1='Til The House Burns Down
TTITLE2=Magic Touch
TTITLE3=Leave This Town
TTITLE4=Tequila Y Bunuelos
TTITLE5=Fool's Castle
TTITLE6=Kiara
TTITLE7=Yes or No
TTITLE8=Bottles
TTITLE9=Everytime I Smoke a Smoke
TTITLE10=Halfway To Nowhere
TTITLE11=Thank You Lord
TTITLE12=Chain Gang
TTITLE13=Where The Great Waters Flow
TTITLE14=I'm Coming My Darling
EXTD=
EXTT0=
EXTT1=
EXTT2=
EXTT3=
EXTT4=
EXTT5=
EXTT6=
EXTT7=
EXTT8=
EXTT9=
EXTT10=
EXTT11=
EXTT12=
EXTT13=
EXTT14=
PLAYORDER=
